<svg xmlns="http://www.w3.org/2000/svg" width="406" height="120" viewBox="0 0 406 120" role="img" aria-label="Vitalry logo">
  <g stroke="#0F4D2E">
    <path d="M 46 102 L 42 47" fill="none" stroke-width="14" stroke-linecap="round" stroke-linejoin="round"></path>
    <path d="M 44 80 Q 34 76 31 65" fill="none" stroke-width="14" stroke-linecap="round" stroke-linejoin="round"></path>
    <path d="M 74 102 L 78 47" fill="none" stroke-width="14" stroke-linecap="round" stroke-linejoin="round"></path>
    <path d="M 76 80 Q 86 76 89 65" fill="none" stroke-width="14" stroke-linecap="round" stroke-linejoin="round"></path>
  </g>
  <g stroke="#2FA05C">
    <path d="M 53 41 L 49 29" fill="none" stroke-width="8" stroke-linecap="round"></path>
    <path d="M 60 39 L 60 26" fill="none" stroke-width="8" stroke-linecap="round"></path>
    <path d="M 67 41 L 71 29" fill="none" stroke-width="8" stroke-linecap="round"></path>
  </g>
  <g transform="translate(140,12)">
    <path d="M32.62 72L16.49 72L1.01 24.48L13.68 24.48L24.12 62.28L25.13 62.28L35.57 24.48L48.10 24.48L32.62 72ZM63.72 72L52.13 72L52.13 33.98L63.72 33.98L63.72 72ZM57.96 28.66L57.96 28.66Q54.65 28.66 52.88 27.25Q51.12 25.85 51.12 23.26L51.12 23.26Q51.12 20.52 52.88 19.12Q54.65 17.71 57.96 17.71L57.96 17.71Q61.34 17.71 63.11 19.12Q64.87 20.52 64.87 23.18L64.87 23.18Q64.87 25.85 63.11 27.25Q61.34 28.66 57.96 28.66ZM86.11 72.94L86.11 72.94Q79.42 72.94 76.25 69.37Q73.08 65.81 73.08 57.96L73.08 57.96L73.08 43.06L67.68 43.06L67.90 34.06L71.78 34.06Q74.09 33.98 75.28 33.34Q76.46 32.69 76.75 30.89L76.75 30.89L77.69 25.56L84.24 25.56L84.24 33.98L93.38 33.98L93.38 43.42L84.24 43.42L84.24 57.46Q84.24 59.90 85.43 61.06Q86.62 62.21 89.06 62.21L89.06 62.21Q90.43 62.21 91.66 61.92Q92.88 61.63 93.67 61.13L93.67 61.13L93.67 71.86Q91.37 72.58 89.46 72.76Q87.55 72.94 86.11 72.94ZM108 73.01L108 73.01Q104.83 73.01 102.38 71.75Q99.94 70.49 98.57 68.08Q97.20 65.66 97.20 62.21L97.20 62.21Q97.20 58.97 98.46 56.84Q99.72 54.72 102.13 53.46Q104.54 52.20 107.93 51.37Q111.31 50.54 115.63 49.90L115.63 49.90Q117.72 49.54 119.12 49.21Q120.53 48.89 121.25 48.17Q121.97 47.45 121.97 46.08L121.97 46.08Q121.97 44.28 120.67 42.98Q119.38 41.69 116.50 41.69L116.50 41.69Q114.48 41.69 112.86 42.41Q111.24 43.13 110.09 44.50Q108.94 45.86 108.36 47.81L108.36 47.81L98.14 44.78Q99.07 41.76 100.76 39.53Q102.46 37.30 104.83 35.82Q107.21 34.34 110.27 33.66Q113.33 32.98 116.78 32.98L116.78 32.98Q122.54 32.98 126.18 34.81Q129.82 36.65 131.58 40.50Q133.34 44.35 133.34 50.40L133.34 50.40L133.34 56.23Q133.34 58.82 133.45 61.45Q133.56 64.08 133.74 66.71Q133.92 69.34 134.21 72L134.21 72L123.98 72Q123.70 70.34 123.41 68.00Q123.12 65.66 122.98 63.22L122.98 63.22L121.61 63.22Q120.60 65.95 118.69 68.22Q116.78 70.49 114.08 71.75Q111.38 73.01 108 73.01ZM113.26 64.80L113.26 64.80Q114.55 64.80 115.88 64.33Q117.22 63.86 118.44 63.04Q119.66 62.21 120.67 60.98Q121.68 59.76 122.18 58.32L122.18 58.32L122.04 52.63L123.62 52.99Q122.26 53.86 120.60 54.36Q118.94 54.86 117.25 55.15Q115.56 55.44 113.94 55.76Q112.32 56.09 111.06 56.59Q109.80 57.10 109.08 57.96Q108.36 58.82 108.36 60.34L108.36 60.34Q108.36 62.35 109.73 63.58Q111.10 64.80 113.26 64.80ZM151.85 72L140.47 72L140.47 20.16L151.85 20.16L151.85 72ZM171.07 72L159.41 72L159.41 54.36L159.41 33.98L168.91 33.98L169.13 46.87L170.57 46.87Q171.07 41.83 172.48 38.84Q173.88 35.86 176.51 34.49Q179.14 33.12 183.02 33.12L183.02 33.12Q183.60 33.12 184.32 33.16Q185.04 33.19 185.98 33.34L185.98 33.34L185.54 45.72Q184.39 45.14 183.06 44.96Q181.73 44.78 180.72 44.78L180.72 44.78Q177.91 44.78 175.86 45.86Q173.81 46.94 172.62 49.18Q171.43 51.41 171.07 54.79L171.07 54.79L171.07 72ZM204.70 85.25L204.70 85.25Q201.82 85.25 198.79 84.74Q195.77 84.24 193.07 83.27Q190.37 82.30 188.42 80.71L188.42 80.71L191.23 70.42Q193.75 72.79 197.32 73.94Q200.88 75.10 204.19 75.10L204.19 75.10Q208.01 75.10 210.49 73.62Q212.98 72.14 214.31 69.08Q215.64 66.02 215.86 61.49L215.86 61.49L216.22 55.22L214.49 55.22Q213.84 59.90 212.22 62.86Q210.60 65.81 208.12 67.21Q205.63 68.62 202.25 68.62L202.25 68.62Q198.07 68.62 195.26 66.53Q192.46 64.44 191.05 60.23Q189.65 56.02 189.65 49.75L189.65 49.75L189.65 33.98L201.31 33.98L201.31 46.87Q201.31 53.50 202.64 56.34Q203.98 59.18 206.86 59.18L206.86 59.18Q208.37 59.18 209.59 58.32Q210.82 57.46 211.68 55.87Q212.54 54.29 213.01 52.02Q213.48 49.75 213.48 46.94L213.48 46.94L213.48 33.98L225.07 33.98L225.07 61.92Q225.07 66.46 224.24 70.20Q223.42 73.94 221.80 76.75Q220.18 79.56 217.73 81.47Q215.28 83.38 212.04 84.31Q208.80 85.25 204.70 85.25Z" fill="#0F4D2E"></path>
    <path d="M236.95 72.94L236.95 72.94Q233.21 72.94 231.37 71.35Q229.54 69.77 229.54 66.46L229.54 66.46Q229.54 63.07 231.37 61.49Q233.21 59.90 236.95 59.90L236.95 59.90Q240.77 59.90 242.64 61.49Q244.51 63.07 244.51 66.46L244.51 66.46Q244.51 72.94 236.95 72.94Z" fill="#2FA05C"></path>
  </g>
</svg>